<mxfile host="Electron" agent="Mozilla/5.0 (Windows NT 10.0; Win64; x64) AppleWebKit/537.36 (KHTML, like Gecko) draw.io/24.7.8 Chrome/128.0.6613.36 Electron/32.0.1 Safari/537.36" version="24.7.8" pages="5">
  <diagram name="系统功能架构" id="0XOXjUGEufiTANsVMBx9">
    <mxGraphModel dx="1562" dy="909" grid="1" gridSize="10" guides="1" tooltips="1" connect="1" arrows="1" fold="1" page="1" pageScale="1" pageWidth="827" pageHeight="1169" math="0" shadow="0">
      <root>
        <mxCell id="0" />
        <mxCell id="1" parent="0" />
        <mxCell id="JpvQB-08f92vs4fJW8Ec-20" value="接口管理与可视化配置" style="rounded=0;whiteSpace=wrap;html=1;verticalAlign=bottom;fillColor=#e1d5e7;strokeColor=#9673a6;dashed=1;" parent="1" vertex="1">
          <mxGeometry x="80" y="480" width="630" height="120" as="geometry" />
        </mxCell>
        <mxCell id="JpvQB-08f92vs4fJW8Ec-6" value="接口基础信息管理" style="rounded=1;whiteSpace=wrap;html=1;" parent="1" vertex="1">
          <mxGeometry x="105" y="500" width="100" height="60" as="geometry" />
        </mxCell>
        <mxCell id="JpvQB-08f92vs4fJW8Ec-11" value="接口测试" style="rounded=1;whiteSpace=wrap;html=1;" parent="1" vertex="1">
          <mxGeometry x="345" y="500" width="100" height="60" as="geometry" />
        </mxCell>
        <mxCell id="JpvQB-08f92vs4fJW8Ec-12" value="接口文档" style="rounded=1;whiteSpace=wrap;html=1;" parent="1" vertex="1">
          <mxGeometry x="585" y="500" width="100" height="60" as="geometry" />
        </mxCell>
        <mxCell id="JpvQB-08f92vs4fJW8Ec-18" value="接口流程编排" style="rounded=1;whiteSpace=wrap;html=1;" parent="1" vertex="1">
          <mxGeometry x="225" y="500" width="100" height="60" as="geometry" />
        </mxCell>
        <mxCell id="JpvQB-08f92vs4fJW8Ec-21" value="接口上下线" style="rounded=1;whiteSpace=wrap;html=1;" parent="1" vertex="1">
          <mxGeometry x="465" y="500" width="100" height="60" as="geometry" />
        </mxCell>
        <mxCell id="JpvQB-08f92vs4fJW8Ec-26" value="&lt;div style=&quot;&quot;&gt;运行与监控&lt;/div&gt;" style="rounded=0;whiteSpace=wrap;html=1;movable=1;resizable=1;rotatable=1;deletable=1;editable=1;locked=0;connectable=1;horizontal=1;align=center;verticalAlign=bottom;fillColor=#f5f5f5;fontColor=#333333;strokeColor=#666666;dashed=1;glass=0;" parent="1" vertex="1">
          <mxGeometry x="480" y="630" width="230" height="200" as="geometry" />
        </mxCell>
        <mxCell id="JpvQB-08f92vs4fJW8Ec-4" value="运行日志" style="rounded=1;whiteSpace=wrap;html=1;movable=1;resizable=1;rotatable=1;deletable=1;editable=1;locked=0;connectable=1;flipV=1;" parent="1" vertex="1">
          <mxGeometry x="602" y="650" width="83" height="37.5" as="geometry" />
        </mxCell>
        <mxCell id="JpvQB-08f92vs4fJW8Ec-22" value="白名单控制" style="rounded=1;whiteSpace=wrap;html=1;movable=1;resizable=1;rotatable=1;deletable=1;editable=1;locked=0;connectable=1;flipV=1;" parent="1" vertex="1">
          <mxGeometry x="500" y="711.25" width="80" height="37.5" as="geometry" />
        </mxCell>
        <mxCell id="JpvQB-08f92vs4fJW8Ec-23" value="接口限流" style="rounded=1;whiteSpace=wrap;html=1;movable=1;resizable=1;rotatable=1;deletable=1;editable=1;locked=0;connectable=1;flipV=1;" parent="1" vertex="1">
          <mxGeometry x="602" y="711.25" width="83" height="37.5" as="geometry" />
        </mxCell>
        <mxCell id="JpvQB-08f92vs4fJW8Ec-24" value="客户端鉴权" style="rounded=1;whiteSpace=wrap;html=1;movable=1;resizable=1;rotatable=1;deletable=1;editable=1;locked=0;connectable=1;flipV=1;" parent="1" vertex="1">
          <mxGeometry x="500" y="770" width="80" height="37.5" as="geometry" />
        </mxCell>
        <mxCell id="73CrSDkAPKUB9IUhtg6c-1" value="" style="group" parent="1" vertex="1" connectable="0">
          <mxGeometry x="80" y="630" width="370" height="200" as="geometry" />
        </mxCell>
        <mxCell id="JpvQB-08f92vs4fJW8Ec-10" value="DAG任务执行器" style="rounded=0;whiteSpace=wrap;html=1;verticalAlign=bottom;fillColor=#fff2cc;strokeColor=#d6b656;dashed=1;" parent="73CrSDkAPKUB9IUhtg6c-1" vertex="1">
          <mxGeometry width="370" height="200" as="geometry" />
        </mxCell>
        <mxCell id="JpvQB-08f92vs4fJW8Ec-13" value="Table节点执行器" style="rounded=1;whiteSpace=wrap;html=1;" parent="73CrSDkAPKUB9IUhtg6c-1" vertex="1">
          <mxGeometry x="22.605555555555558" y="20" width="98.66666666666666" height="60" as="geometry" />
        </mxCell>
        <mxCell id="JpvQB-08f92vs4fJW8Ec-14" value="Sql节点执行器" style="rounded=1;whiteSpace=wrap;html=1;" parent="73CrSDkAPKUB9IUhtg6c-1" vertex="1">
          <mxGeometry x="140.18333333333334" y="20" width="98.66666666666666" height="60" as="geometry" />
        </mxCell>
        <mxCell id="JpvQB-08f92vs4fJW8Ec-15" value="Http节点执行器" style="rounded=1;whiteSpace=wrap;html=1;" parent="73CrSDkAPKUB9IUhtg6c-1" vertex="1">
          <mxGeometry x="256.93888888888887" y="20" width="98.66666666666666" height="60" as="geometry" />
        </mxCell>
        <mxCell id="JpvQB-08f92vs4fJW8Ec-16" value="JS节点执行器" style="rounded=1;whiteSpace=wrap;html=1;" parent="73CrSDkAPKUB9IUhtg6c-1" vertex="1">
          <mxGeometry x="20.552222222222227" y="110" width="98.66666666666666" height="60" as="geometry" />
        </mxCell>
        <mxCell id="JpvQB-08f92vs4fJW8Ec-17" value="Groovy节点执行器" style="rounded=1;whiteSpace=wrap;html=1;" parent="73CrSDkAPKUB9IUhtg6c-1" vertex="1">
          <mxGeometry x="139.77444444444444" y="110" width="98.66666666666666" height="60" as="geometry" />
        </mxCell>
        <mxCell id="xSThs0vWAS3E4zNTi9Bs-1" value="MQ节点执行器" style="rounded=1;whiteSpace=wrap;html=1;fillColor=#f0a30a;fontColor=#FFFFFF;strokeColor=#BD7000;" parent="73CrSDkAPKUB9IUhtg6c-1" vertex="1">
          <mxGeometry x="254.88444444444445" y="110" width="98.66666666666666" height="60" as="geometry" />
        </mxCell>
        <mxCell id="73CrSDkAPKUB9IUhtg6c-2" value="数据源动态切换" style="rounded=1;whiteSpace=wrap;html=1;movable=1;resizable=1;rotatable=1;deletable=1;editable=1;locked=0;connectable=1;flipV=1;" parent="1" vertex="1">
          <mxGeometry x="500" y="650" width="80" height="37.5" as="geometry" />
        </mxCell>
        <mxCell id="73CrSDkAPKUB9IUhtg6c-3" value="" style="group" parent="1" vertex="1" connectable="0">
          <mxGeometry x="80" y="230" width="630" height="220" as="geometry" />
        </mxCell>
        <mxCell id="JpvQB-08f92vs4fJW8Ec-19" value="基础数据管理" style="rounded=0;whiteSpace=wrap;html=1;verticalAlign=bottom;fillColor=#d5e8d4;strokeColor=#82b366;dashed=1;" parent="73CrSDkAPKUB9IUhtg6c-3" vertex="1">
          <mxGeometry width="630" height="220" as="geometry" />
        </mxCell>
        <mxCell id="JpvQB-08f92vs4fJW8Ec-1" value="系统登录" style="rounded=1;whiteSpace=wrap;html=1;" parent="73CrSDkAPKUB9IUhtg6c-3" vertex="1">
          <mxGeometry x="270" y="120" width="100" height="60" as="geometry" />
        </mxCell>
        <mxCell id="JpvQB-08f92vs4fJW8Ec-2" value="用户管理" style="rounded=1;whiteSpace=wrap;html=1;" parent="73CrSDkAPKUB9IUhtg6c-3" vertex="1">
          <mxGeometry x="390" y="120" width="95" height="60" as="geometry" />
        </mxCell>
        <mxCell id="JpvQB-08f92vs4fJW8Ec-3" value="定时任务" style="rounded=1;whiteSpace=wrap;html=1;" parent="73CrSDkAPKUB9IUhtg6c-3" vertex="1">
          <mxGeometry x="510" y="120" width="95" height="60" as="geometry" />
        </mxCell>
        <mxCell id="JpvQB-08f92vs4fJW8Ec-5" value="接口分类管理" style="rounded=1;whiteSpace=wrap;html=1;" parent="73CrSDkAPKUB9IUhtg6c-3" vertex="1">
          <mxGeometry x="25" y="30" width="85" height="60" as="geometry" />
        </mxCell>
        <mxCell id="JpvQB-08f92vs4fJW8Ec-7" value="数据源管理" style="rounded=1;whiteSpace=wrap;html=1;" parent="73CrSDkAPKUB9IUhtg6c-3" vertex="1">
          <mxGeometry x="145" y="30" width="92" height="60" as="geometry" />
        </mxCell>
        <mxCell id="JpvQB-08f92vs4fJW8Ec-8" value="接入方管理" style="rounded=1;whiteSpace=wrap;html=1;" parent="73CrSDkAPKUB9IUhtg6c-3" vertex="1">
          <mxGeometry x="270" y="30" width="98" height="60" as="geometry" />
        </mxCell>
        <mxCell id="JpvQB-08f92vs4fJW8Ec-9" value="接入方鉴权管理" style="rounded=1;whiteSpace=wrap;html=1;" parent="73CrSDkAPKUB9IUhtg6c-3" vertex="1">
          <mxGeometry x="390" y="30" width="95" height="60" as="geometry" />
        </mxCell>
        <mxCell id="JpvQB-08f92vs4fJW8Ec-25" value="客户端管理" style="rounded=1;whiteSpace=wrap;html=1;" parent="73CrSDkAPKUB9IUhtg6c-3" vertex="1">
          <mxGeometry x="25" y="120" width="85" height="60" as="geometry" />
        </mxCell>
        <mxCell id="xSThs0vWAS3E4zNTi9Bs-12" value="MQ监听管理" style="rounded=1;whiteSpace=wrap;html=1;fillColor=#f0a30a;fontColor=#FFFFFF;strokeColor=#BD7000;" parent="73CrSDkAPKUB9IUhtg6c-3" vertex="1">
          <mxGeometry x="510" y="30" width="95" height="60" as="geometry" />
        </mxCell>
        <mxCell id="fzGO5nSWQXrbNnpkwKlt-1" value="客户端接口授权" style="rounded=1;whiteSpace=wrap;html=1;fillColor=#f0a30a;strokeColor=#BD7000;fontColor=#FFFFFF;" vertex="1" parent="73CrSDkAPKUB9IUhtg6c-3">
          <mxGeometry x="145" y="120" width="95" height="60" as="geometry" />
        </mxCell>
        <mxCell id="4tHlc-rJ9kxKQWhEn0bO-1" value="游客模式" style="rounded=1;whiteSpace=wrap;html=1;movable=1;resizable=1;rotatable=1;deletable=1;editable=1;locked=0;connectable=1;flipV=1;" vertex="1" parent="1">
          <mxGeometry x="605" y="770" width="80" height="37.5" as="geometry" />
        </mxCell>
      </root>
    </mxGraphModel>
  </diagram>
  <diagram id="X6uCXtc2x3ffkglC_u0b" name="系统技术架构">
    <mxGraphModel dx="1562" dy="909" grid="1" gridSize="10" guides="1" tooltips="1" connect="1" arrows="1" fold="1" page="1" pageScale="1" pageWidth="827" pageHeight="1169" math="0" shadow="0">
      <root>
        <mxCell id="0" />
        <mxCell id="1" parent="0" />
        <mxCell id="bcdp5MWSVbdiy3uP6BfF-1" value="Vue3" style="rounded=0;whiteSpace=wrap;html=1;fillColor=#f5f5f5;fontColor=#333333;strokeColor=#666666;" parent="1" vertex="1">
          <mxGeometry x="151" y="170" width="120" height="60" as="geometry" />
        </mxCell>
        <mxCell id="bcdp5MWSVbdiy3uP6BfF-2" value="MyBatis&amp;nbsp;Plus动态语句执行" style="rounded=0;whiteSpace=wrap;html=1;fillColor=#ffe6cc;strokeColor=#d79b00;" parent="1" vertex="1">
          <mxGeometry x="497" y="500" width="120" height="60" as="geometry" />
        </mxCell>
        <mxCell id="bcdp5MWSVbdiy3uP6BfF-3" value="MySql" style="shape=cylinder3;whiteSpace=wrap;html=1;boundedLbl=1;backgroundOutline=1;size=15;fillColor=#fff2cc;strokeColor=#d6b656;" parent="1" vertex="1">
          <mxGeometry x="440" y="700" width="60" height="60" as="geometry" />
        </mxCell>
        <mxCell id="dpyJKgWBF-nQsMOwFTdA-1" value="MyBatis Plus动态数据源切换" style="rounded=0;whiteSpace=wrap;html=1;fillColor=#ffe6cc;strokeColor=#d79b00;" parent="1" vertex="1">
          <mxGeometry x="321" y="500" width="120" height="60" as="geometry" />
        </mxCell>
        <mxCell id="dpyJKgWBF-nQsMOwFTdA-2" value="MyBatis Plus基础CRUD功能" style="rounded=0;whiteSpace=wrap;html=1;fillColor=#ffe6cc;strokeColor=#d79b00;" parent="1" vertex="1">
          <mxGeometry x="151" y="500" width="120" height="60" as="geometry" />
        </mxCell>
        <mxCell id="dpyJKgWBF-nQsMOwFTdA-3" value="GraalVM JS执行器" style="rounded=0;whiteSpace=wrap;html=1;fillColor=#d5e8d4;strokeColor=#82b366;" parent="1" vertex="1">
          <mxGeometry x="151" y="420" width="120" height="60" as="geometry" />
        </mxCell>
        <mxCell id="dpyJKgWBF-nQsMOwFTdA-4" value="Groovy动态执行器" style="rounded=0;whiteSpace=wrap;html=1;fillColor=#d5e8d4;strokeColor=#82b366;" parent="1" vertex="1">
          <mxGeometry x="321" y="420" width="120" height="60" as="geometry" />
        </mxCell>
        <mxCell id="dpyJKgWBF-nQsMOwFTdA-5" value="Dag&amp;nbsp;Executor" style="rounded=0;whiteSpace=wrap;html=1;fillColor=#d5e8d4;strokeColor=#82b366;" parent="1" vertex="1">
          <mxGeometry x="670" y="420" width="120" height="60" as="geometry" />
        </mxCell>
        <mxCell id="dpyJKgWBF-nQsMOwFTdA-6" value="JsonPath数据解析器" style="rounded=0;whiteSpace=wrap;html=1;fillColor=#d5e8d4;strokeColor=#82b366;" parent="1" vertex="1">
          <mxGeometry x="497" y="420" width="120" height="60" as="geometry" />
        </mxCell>
        <mxCell id="JnIDLDQAX8Z-bv5Kziy6-1" value="ElementPlus" style="rounded=0;whiteSpace=wrap;html=1;fillColor=#f5f5f5;fontColor=#333333;strokeColor=#666666;" vertex="1" parent="1">
          <mxGeometry x="321" y="170" width="120" height="60" as="geometry" />
        </mxCell>
        <mxCell id="JnIDLDQAX8Z-bv5Kziy6-2" value="MonacoEditor" style="rounded=0;whiteSpace=wrap;html=1;fillColor=#f5f5f5;fontColor=#333333;strokeColor=#666666;" vertex="1" parent="1">
          <mxGeometry x="497" y="170" width="120" height="60" as="geometry" />
        </mxCell>
        <mxCell id="JnIDLDQAX8Z-bv5Kziy6-3" value="ButtterFly DAG" style="rounded=0;whiteSpace=wrap;html=1;fillColor=#f5f5f5;fontColor=#333333;strokeColor=#666666;" vertex="1" parent="1">
          <mxGeometry x="670" y="170" width="120" height="60" as="geometry" />
        </mxCell>
        <mxCell id="JnIDLDQAX8Z-bv5Kziy6-4" value="Nginx" style="rounded=0;whiteSpace=wrap;html=1;fillColor=#f5f5f5;fontColor=#333333;strokeColor=#666666;" vertex="1" parent="1">
          <mxGeometry x="151" y="260" width="639" height="60" as="geometry" />
        </mxCell>
        <mxCell id="JnIDLDQAX8Z-bv5Kziy6-5" value="Liquibase" style="rounded=0;whiteSpace=wrap;html=1;fillColor=#ffe6cc;strokeColor=#d79b00;" vertex="1" parent="1">
          <mxGeometry x="670" y="500" width="120" height="60" as="geometry" />
        </mxCell>
        <mxCell id="JnIDLDQAX8Z-bv5Kziy6-6" value="Guava接口限流" style="rounded=0;whiteSpace=wrap;html=1;fillColor=#d5e8d4;strokeColor=#82b366;" vertex="1" parent="1">
          <mxGeometry x="151" y="340" width="289" height="60" as="geometry" />
        </mxCell>
        <mxCell id="JnIDLDQAX8Z-bv5Kziy6-7" value="Redisson接口限流" style="rounded=0;whiteSpace=wrap;html=1;fillColor=#d5e8d4;strokeColor=#82b366;" vertex="1" parent="1">
          <mxGeometry x="497" y="340" width="293" height="60" as="geometry" />
        </mxCell>
        <mxCell id="JnIDLDQAX8Z-bv5Kziy6-8" value="Spring Boot3" style="rounded=0;whiteSpace=wrap;html=1;fillColor=#dae8fc;strokeColor=#6c8ebf;" vertex="1" parent="1">
          <mxGeometry x="151" y="585" width="189" height="60" as="geometry" />
        </mxCell>
        <mxCell id="JnIDLDQAX8Z-bv5Kziy6-9" value="Spring Security" style="rounded=0;whiteSpace=wrap;html=1;fillColor=#dae8fc;strokeColor=#6c8ebf;" vertex="1" parent="1">
          <mxGeometry x="375.5" y="585" width="190" height="60" as="geometry" />
        </mxCell>
        <mxCell id="daoJXs1O2hqdfJZPEMAA-1" value="Spring Websocket" style="rounded=0;whiteSpace=wrap;html=1;fillColor=#dae8fc;strokeColor=#6c8ebf;" vertex="1" parent="1">
          <mxGeometry x="600" y="585" width="190" height="60" as="geometry" />
        </mxCell>
        <mxCell id="PBr7v01nGrzdwzgWJBF0-1" value="应用层" style="rounded=0;whiteSpace=wrap;html=1;dashed=1;fillColor=none;horizontal=0;strokeColor=#B3B3B3;" vertex="1" parent="1">
          <mxGeometry x="50" y="170" width="40" height="150" as="geometry" />
        </mxCell>
        <mxCell id="PBr7v01nGrzdwzgWJBF0-2" value="服务层" style="rounded=0;whiteSpace=wrap;html=1;dashed=1;fillColor=none;horizontal=0;strokeColor=#B3B3B3;" vertex="1" parent="1">
          <mxGeometry x="50" y="340" width="40" height="140" as="geometry" />
        </mxCell>
        <mxCell id="PBr7v01nGrzdwzgWJBF0-3" value="领域层" style="rounded=0;whiteSpace=wrap;html=1;dashed=1;fillColor=none;horizontal=0;strokeColor=#B3B3B3;" vertex="1" parent="1">
          <mxGeometry x="50" y="500" width="40" height="60" as="geometry" />
        </mxCell>
        <mxCell id="PBr7v01nGrzdwzgWJBF0-4" value="框架" style="rounded=0;whiteSpace=wrap;html=1;dashed=1;fillColor=none;horizontal=0;strokeColor=#B3B3B3;" vertex="1" parent="1">
          <mxGeometry x="50" y="585" width="40" height="60" as="geometry" />
        </mxCell>
      </root>
    </mxGraphModel>
  </diagram>
  <diagram id="zNrAoXf42UBVlwk_trJk" name="系统部署架构">
    <mxGraphModel dx="2389" dy="909" grid="1" gridSize="10" guides="1" tooltips="1" connect="1" arrows="1" fold="1" page="1" pageScale="1" pageWidth="827" pageHeight="1169" math="0" shadow="0">
      <root>
        <mxCell id="0" />
        <mxCell id="1" parent="0" />
        <mxCell id="iCNT8WxeEEMFYzvRomDQ-7" value="浏览器" style="fontColor=#0066CC;verticalAlign=top;verticalLabelPosition=bottom;labelPosition=center;align=center;html=1;outlineConnect=0;fillColor=#CCCCCC;strokeColor=#6881B3;gradientColor=none;gradientDirection=north;strokeWidth=2;shape=mxgraph.networks.terminal;" vertex="1" parent="1">
          <mxGeometry x="165" y="220" width="80" height="65" as="geometry" />
        </mxCell>
        <mxCell id="iCNT8WxeEEMFYzvRomDQ-21" style="edgeStyle=orthogonalEdgeStyle;rounded=0;orthogonalLoop=1;jettySize=auto;html=1;exitX=0.5;exitY=1;exitDx=0;exitDy=0;exitPerimeter=0;startArrow=classic;startFill=1;" edge="1" parent="1" source="iCNT8WxeEEMFYzvRomDQ-8" target="iCNT8WxeEEMFYzvRomDQ-11">
          <mxGeometry relative="1" as="geometry" />
        </mxCell>
        <mxCell id="iCNT8WxeEEMFYzvRomDQ-8" value="nginx" style="fontColor=#0066CC;verticalAlign=top;verticalLabelPosition=bottom;labelPosition=center;align=center;html=1;outlineConnect=0;fillColor=#CCCCCC;strokeColor=#6881B3;gradientColor=none;gradientDirection=north;strokeWidth=2;shape=mxgraph.networks.hub;" vertex="1" parent="1">
          <mxGeometry x="155" y="370" width="100" height="30" as="geometry" />
        </mxCell>
        <mxCell id="iCNT8WxeEEMFYzvRomDQ-9" value="第三方调用" style="fontColor=#0066CC;verticalAlign=top;verticalLabelPosition=bottom;labelPosition=center;align=center;html=1;outlineConnect=0;fillColor=none;strokeColor=#E1D5E7;gradientColor=none;gradientDirection=north;strokeWidth=2;shape=mxgraph.networks.users;" vertex="1" parent="1">
          <mxGeometry x="-110" y="352.5" width="60" height="65" as="geometry" />
        </mxCell>
        <mxCell id="iCNT8WxeEEMFYzvRomDQ-19" style="edgeStyle=orthogonalEdgeStyle;rounded=0;orthogonalLoop=1;jettySize=auto;html=1;exitX=0.5;exitY=1;exitDx=0;exitDy=0;exitPerimeter=0;startArrow=classic;startFill=1;" edge="1" parent="1" source="iCNT8WxeEEMFYzvRomDQ-10" target="iCNT8WxeEEMFYzvRomDQ-7">
          <mxGeometry relative="1" as="geometry" />
        </mxCell>
        <mxCell id="iCNT8WxeEEMFYzvRomDQ-10" value="接口管理员" style="fontColor=#0066CC;verticalAlign=top;verticalLabelPosition=bottom;labelPosition=center;align=center;html=1;outlineConnect=0;fillColor=#CCCCCC;strokeColor=#6881B3;gradientColor=none;gradientDirection=north;strokeWidth=2;shape=mxgraph.networks.user_male;" vertex="1" parent="1">
          <mxGeometry x="185" y="30" width="40" height="100" as="geometry" />
        </mxCell>
        <mxCell id="iCNT8WxeEEMFYzvRomDQ-24" style="edgeStyle=orthogonalEdgeStyle;rounded=0;orthogonalLoop=1;jettySize=auto;html=1;exitX=1;exitY=1;exitDx=0;exitDy=0;exitPerimeter=0;entryX=0.5;entryY=0;entryDx=0;entryDy=0;entryPerimeter=0;startArrow=classic;startFill=1;endArrow=classic;endFill=1;" edge="1" parent="1" source="iCNT8WxeEEMFYzvRomDQ-11" target="iCNT8WxeEEMFYzvRomDQ-16">
          <mxGeometry relative="1" as="geometry">
            <mxPoint x="360" y="680" as="targetPoint" />
            <Array as="points">
              <mxPoint x="500" y="585" />
            </Array>
          </mxGeometry>
        </mxCell>
        <mxCell id="iCNT8WxeEEMFYzvRomDQ-11" value="Service" style="fontColor=#0066CC;verticalAlign=top;verticalLabelPosition=bottom;labelPosition=center;align=center;html=1;outlineConnect=0;fillColor=#CCCCCC;strokeColor=#6881B3;gradientColor=none;gradientDirection=north;strokeWidth=2;shape=mxgraph.networks.server;" vertex="1" parent="1">
          <mxGeometry x="160" y="485" width="90" height="100" as="geometry" />
        </mxCell>
        <mxCell id="iCNT8WxeEEMFYzvRomDQ-12" value="第三方系统" style="fontColor=#0066CC;verticalAlign=top;verticalLabelPosition=bottom;labelPosition=center;align=center;html=1;outlineConnect=0;fillColor=default;strokeColor=#CCCCFF;gradientColor=none;gradientDirection=north;strokeWidth=2;shape=mxgraph.networks.server;" vertex="1" parent="1">
          <mxGeometry x="500" y="285" width="90" height="100" as="geometry" />
        </mxCell>
        <mxCell id="iCNT8WxeEEMFYzvRomDQ-13" value="DB" style="fontColor=#0066CC;verticalAlign=top;verticalLabelPosition=bottom;labelPosition=center;align=center;html=1;outlineConnect=0;fillColor=#CCCCCC;strokeColor=#6881B3;gradientColor=none;gradientDirection=north;strokeWidth=2;shape=mxgraph.networks.storage;" vertex="1" parent="1">
          <mxGeometry x="165" y="660" width="80" height="60" as="geometry" />
        </mxCell>
        <mxCell id="iCNT8WxeEEMFYzvRomDQ-20" style="edgeStyle=orthogonalEdgeStyle;rounded=0;orthogonalLoop=1;jettySize=auto;html=1;exitX=1;exitY=0.5;exitDx=0;exitDy=0;exitPerimeter=0;entryX=0;entryY=0.5;entryDx=0;entryDy=0;entryPerimeter=0;startArrow=classic;startFill=1;" edge="1" parent="1" source="iCNT8WxeEEMFYzvRomDQ-9" target="iCNT8WxeEEMFYzvRomDQ-8">
          <mxGeometry relative="1" as="geometry" />
        </mxCell>
        <mxCell id="iCNT8WxeEEMFYzvRomDQ-22" style="edgeStyle=orthogonalEdgeStyle;rounded=0;orthogonalLoop=1;jettySize=auto;html=1;exitX=0.5;exitY=1;exitDx=0;exitDy=0;exitPerimeter=0;entryX=0.5;entryY=0;entryDx=0;entryDy=0;entryPerimeter=0;jumpStyle=none;startArrow=classic;startFill=1;" edge="1" parent="1" source="iCNT8WxeEEMFYzvRomDQ-11" target="iCNT8WxeEEMFYzvRomDQ-13">
          <mxGeometry relative="1" as="geometry" />
        </mxCell>
        <mxCell id="iCNT8WxeEEMFYzvRomDQ-23" style="edgeStyle=orthogonalEdgeStyle;rounded=0;orthogonalLoop=1;jettySize=auto;html=1;exitX=1;exitY=0.5;exitDx=0;exitDy=0;exitPerimeter=0;entryX=0;entryY=0.5;entryDx=0;entryDy=0;entryPerimeter=0;startArrow=classic;startFill=1;endArrow=classic;endFill=1;" edge="1" parent="1" source="iCNT8WxeEEMFYzvRomDQ-11" target="iCNT8WxeEEMFYzvRomDQ-12">
          <mxGeometry relative="1" as="geometry" />
        </mxCell>
        <mxCell id="iCNT8WxeEEMFYzvRomDQ-25" style="edgeStyle=orthogonalEdgeStyle;rounded=0;orthogonalLoop=1;jettySize=auto;html=1;exitX=0.5;exitY=1;exitDx=0;exitDy=0;exitPerimeter=0;entryX=0.5;entryY=0;entryDx=0;entryDy=0;entryPerimeter=0;startArrow=classic;startFill=1;" edge="1" parent="1" source="iCNT8WxeEEMFYzvRomDQ-7" target="iCNT8WxeEEMFYzvRomDQ-8">
          <mxGeometry relative="1" as="geometry" />
        </mxCell>
        <mxCell id="iCNT8WxeEEMFYzvRomDQ-14" value="第三方库" style="fontColor=#0066CC;verticalAlign=top;verticalLabelPosition=bottom;labelPosition=center;align=center;html=1;outlineConnect=0;fillColor=default;strokeColor=#CCCCFF;gradientColor=none;gradientDirection=north;strokeWidth=2;shape=mxgraph.networks.storage;" vertex="1" parent="1">
          <mxGeometry x="570" y="605" width="80" height="60" as="geometry" />
        </mxCell>
        <mxCell id="iCNT8WxeEEMFYzvRomDQ-15" value="第三方库" style="fontColor=#0066CC;verticalAlign=top;verticalLabelPosition=bottom;labelPosition=center;align=center;html=1;outlineConnect=0;fillColor=default;strokeColor=#CCCCFF;gradientColor=none;gradientDirection=north;strokeWidth=2;shape=mxgraph.networks.storage;" vertex="1" parent="1">
          <mxGeometry x="520" y="680" width="80" height="60" as="geometry" />
        </mxCell>
        <mxCell id="iCNT8WxeEEMFYzvRomDQ-16" value="第三方库" style="fontColor=#0066CC;verticalAlign=top;verticalLabelPosition=bottom;labelPosition=center;align=center;html=1;outlineConnect=0;fillColor=default;strokeColor=#CCCCFF;gradientColor=none;gradientDirection=north;strokeWidth=2;shape=mxgraph.networks.storage;" vertex="1" parent="1">
          <mxGeometry x="460" y="600" width="80" height="60" as="geometry" />
        </mxCell>
      </root>
    </mxGraphModel>
  </diagram>
  <diagram name="系统交互架构" id="Vo5ucJce1hfanqPDkTwv">
    <mxGraphModel dx="2389" dy="909" grid="1" gridSize="10" guides="1" tooltips="1" connect="1" arrows="1" fold="1" page="1" pageScale="1" pageWidth="827" pageHeight="1169" math="0" shadow="0">
      <root>
        <mxCell id="a-y0YHt6dDklUHgKxBpw-0" />
        <mxCell id="a-y0YHt6dDklUHgKxBpw-1" parent="a-y0YHt6dDklUHgKxBpw-0" />
        <mxCell id="Pl7VVY3B7_4D0HdmtVd1-5" style="edgeStyle=orthogonalEdgeStyle;rounded=0;orthogonalLoop=1;jettySize=auto;html=1;exitX=1;exitY=0.5;exitDx=0;exitDy=0;exitPerimeter=0;startArrow=classic;startFill=1;" parent="a-y0YHt6dDklUHgKxBpw-1" source="a-y0YHt6dDklUHgKxBpw-5" target="Pl7VVY3B7_4D0HdmtVd1-0" edge="1">
          <mxGeometry relative="1" as="geometry" />
        </mxCell>
        <mxCell id="a-y0YHt6dDklUHgKxBpw-5" value="第三方接口调用" style="verticalAlign=top;verticalLabelPosition=bottom;labelPosition=center;align=center;html=1;outlineConnect=0;fillColor=#d5e8d4;strokeColor=#82b366;gradientDirection=north;strokeWidth=2;shape=mxgraph.networks.users;" parent="a-y0YHt6dDklUHgKxBpw-1" vertex="1">
          <mxGeometry x="-40" y="467.5" width="60" height="65" as="geometry" />
        </mxCell>
        <mxCell id="a-y0YHt6dDklUHgKxBpw-10" value="第三方系统" style="verticalAlign=top;verticalLabelPosition=bottom;labelPosition=center;align=center;html=1;outlineConnect=0;fillColor=#dae8fc;strokeColor=#6c8ebf;gradientDirection=north;strokeWidth=2;shape=mxgraph.networks.server;" parent="a-y0YHt6dDklUHgKxBpw-1" vertex="1">
          <mxGeometry x="480" y="330" width="70" height="55" as="geometry" />
        </mxCell>
        <mxCell id="Pl7VVY3B7_4D0HdmtVd1-0" value="&lt;font color=&quot;#000000&quot;&gt;流石API&lt;/font&gt;" style="fontColor=#ffffff;verticalAlign=top;verticalLabelPosition=bottom;labelPosition=center;align=center;html=1;outlineConnect=0;fillColor=#1ba1e2;strokeColor=#006EAF;gradientDirection=north;strokeWidth=2;shape=mxgraph.networks.server;" parent="a-y0YHt6dDklUHgKxBpw-1" vertex="1">
          <mxGeometry x="190" y="450" width="90" height="100" as="geometry" />
        </mxCell>
        <mxCell id="Pl7VVY3B7_4D0HdmtVd1-4" style="edgeStyle=orthogonalEdgeStyle;rounded=0;orthogonalLoop=1;jettySize=auto;html=1;exitX=0.5;exitY=1;exitDx=0;exitDy=0;exitPerimeter=0;startArrow=classic;startFill=1;" parent="a-y0YHt6dDklUHgKxBpw-1" source="Pl7VVY3B7_4D0HdmtVd1-1" target="Pl7VVY3B7_4D0HdmtVd1-0" edge="1">
          <mxGeometry relative="1" as="geometry" />
        </mxCell>
        <mxCell id="Pl7VVY3B7_4D0HdmtVd1-1" value="前端应用" style="verticalAlign=top;verticalLabelPosition=bottom;labelPosition=center;align=center;html=1;outlineConnect=0;fillColor=#d5e8d4;strokeColor=#82b366;gradientDirection=north;strokeWidth=2;shape=mxgraph.networks.terminal;" parent="a-y0YHt6dDklUHgKxBpw-1" vertex="1">
          <mxGeometry x="195" y="260" width="80" height="65" as="geometry" />
        </mxCell>
        <mxCell id="Pl7VVY3B7_4D0HdmtVd1-2" value="&lt;font style=&quot;&quot; color=&quot;#0f0000&quot;&gt;本地库&lt;/font&gt;" style="fontColor=#ffffff;verticalAlign=top;verticalLabelPosition=bottom;labelPosition=center;align=center;html=1;outlineConnect=0;fillColor=#1ba1e2;strokeColor=#006EAF;gradientDirection=north;strokeWidth=2;shape=mxgraph.networks.storage;" parent="a-y0YHt6dDklUHgKxBpw-1" vertex="1">
          <mxGeometry x="195" y="640" width="80" height="50" as="geometry" />
        </mxCell>
        <mxCell id="Pl7VVY3B7_4D0HdmtVd1-3" value="" style="group;fillColor=none;container=0;" parent="a-y0YHt6dDklUHgKxBpw-1" vertex="1" connectable="0">
          <mxGeometry x="450" y="560" width="170" height="130" as="geometry" />
        </mxCell>
        <mxCell id="Pl7VVY3B7_4D0HdmtVd1-6" style="edgeStyle=orthogonalEdgeStyle;rounded=0;orthogonalLoop=1;jettySize=auto;html=1;exitX=0.5;exitY=0;exitDx=0;exitDy=0;exitPerimeter=0;entryX=0.5;entryY=1;entryDx=0;entryDy=0;entryPerimeter=0;startArrow=classic;startFill=1;" parent="a-y0YHt6dDklUHgKxBpw-1" source="Pl7VVY3B7_4D0HdmtVd1-2" target="Pl7VVY3B7_4D0HdmtVd1-0" edge="1">
          <mxGeometry relative="1" as="geometry" />
        </mxCell>
        <mxCell id="Pl7VVY3B7_4D0HdmtVd1-7" style="edgeStyle=orthogonalEdgeStyle;rounded=0;orthogonalLoop=1;jettySize=auto;html=1;exitX=0.5;exitY=0;exitDx=0;exitDy=0;exitPerimeter=0;entryX=1;entryY=0.5;entryDx=0;entryDy=0;entryPerimeter=0;startArrow=classic;startFill=1;" parent="a-y0YHt6dDklUHgKxBpw-1" source="a-y0YHt6dDklUHgKxBpw-18" target="Pl7VVY3B7_4D0HdmtVd1-0" edge="1">
          <mxGeometry relative="1" as="geometry" />
        </mxCell>
        <mxCell id="Pl7VVY3B7_4D0HdmtVd1-8" style="edgeStyle=orthogonalEdgeStyle;rounded=0;orthogonalLoop=1;jettySize=auto;html=1;exitX=0;exitY=0.5;exitDx=0;exitDy=0;exitPerimeter=0;entryX=1;entryY=0.15;entryDx=0;entryDy=0;entryPerimeter=0;startArrow=classic;startFill=1;" parent="a-y0YHt6dDklUHgKxBpw-1" source="a-y0YHt6dDklUHgKxBpw-10" target="Pl7VVY3B7_4D0HdmtVd1-0" edge="1">
          <mxGeometry relative="1" as="geometry" />
        </mxCell>
        <mxCell id="a-y0YHt6dDklUHgKxBpw-16" value="" style="verticalAlign=top;verticalLabelPosition=bottom;labelPosition=center;align=center;html=1;outlineConnect=0;fillColor=#dae8fc;strokeColor=#6c8ebf;gradientDirection=north;strokeWidth=2;shape=mxgraph.networks.storage;container=0;" parent="a-y0YHt6dDklUHgKxBpw-1" vertex="1">
          <mxGeometry x="548.421052631579" y="564.6428571428571" width="71.57894736842105" height="55.714285714285715" as="geometry" />
        </mxCell>
        <mxCell id="a-y0YHt6dDklUHgKxBpw-17" value="第三方库" style="verticalAlign=top;verticalLabelPosition=bottom;labelPosition=center;align=center;html=1;outlineConnect=0;fillColor=#dae8fc;strokeColor=#6c8ebf;gradientDirection=north;strokeWidth=2;shape=mxgraph.networks.storage;container=0;" parent="a-y0YHt6dDklUHgKxBpw-1" vertex="1">
          <mxGeometry x="503.6842105263158" y="634.2857142857143" width="71.57894736842105" height="55.714285714285715" as="geometry" />
        </mxCell>
        <mxCell id="a-y0YHt6dDklUHgKxBpw-18" value="" style="verticalAlign=top;verticalLabelPosition=bottom;labelPosition=center;align=center;html=1;outlineConnect=0;fillColor=#dae8fc;strokeColor=#6c8ebf;gradientDirection=north;strokeWidth=2;shape=mxgraph.networks.storage;container=0;" parent="a-y0YHt6dDklUHgKxBpw-1" vertex="1">
          <mxGeometry x="450" y="560" width="71.57894736842105" height="55.714285714285715" as="geometry" />
        </mxCell>
      </root>
    </mxGraphModel>
  </diagram>
  <diagram id="sfH3tFRt2JN7P85oCd2a" name="第 5 页">
    <mxGraphModel grid="1" page="1" gridSize="10" guides="1" tooltips="1" connect="1" arrows="1" fold="1" pageScale="1" pageWidth="827" pageHeight="1169" math="0" shadow="0">
      <root>
        <mxCell id="0" />
        <mxCell id="1" parent="0" />
      </root>
    </mxGraphModel>
  </diagram>
</mxfile>
